# Blender v2.92.0 OBJ File: ''
# www.blender.org
mtllib 1x1x1 Half Cube.mtl
o Cube_Cube.003
v -0.500000 -0.500000 -0.500000
v -0.500000 0.500000 -0.500000
v 0.500000 0.500000 -0.500000
v 0.500000 -0.500000 -0.500000
v 0.500000 0.500000 0.500000
v -0.500000 0.500000 0.500000
vt 0.000000 0.000000
vt 0.000000 0.000000
vt 0.000000 0.000000
vt 0.000000 0.000000
vt 0.000000 0.000000
vt 0.000000 0.000000
vn 0.0000 1.0000 0.0000
vn 0.0000 0.0000 -1.0000
vn -1.0000 0.0000 0.0000
vn 0.0000 -0.7071 0.7071
vn 1.0000 0.0000 0.0000
usemtl None.001
s off
f 2/1/1 6/2/1 5/3/1 3/4/1
f 3/4/2 4/5/2 1/6/2 2/1/2
f 2/1/3 1/6/3 6/2/3
f 1/6/4 4/5/4 5/3/4 6/2/4
f 4/5/5 3/4/5 5/3/5
